<?xml version="1.0" encoding="UTF-8"?>
<svg id="Calque_1" data-name="Calque 1" xmlns="http://www.w3.org/2000/svg" viewBox="0 0 25 25">
  <defs>
    <style>
      .cls-1 {
        fill: #fff;
      }
    </style>
  </defs>
  <path class="cls-1" d="M25,12.5c0,6.9-5.6,12.5-12.5,12.5-2.73,0-5.24-.87-7.29-2.34l4.87-4.87,2.91,2.89c.51.52,1.16.39,1.41-.31l5.51-14.47c.26-.69-.09-1.03-.78-.77l-14.47,5.5c-.69.27-.83.9-.31,1.42l2.89,2.89-4.87,4.87h-.01c-1.48-2.07-2.36-4.59-2.36-7.32C0,5.6,5.6,0,12.5,0s12.5,5.6,12.5,12.5Z"/>
</svg>